<svg width="160" height="45" viewBox="0 0 160 45" fill="none" xmlns="http://www.w3.org/2000/svg">
<path d="M62.7814 38.1986C63.726 37.9863 64.6606 37.6426 65.6102 37.582C74.0056 37.0765 82.4263 36.8389 90.7965 36.0858C97.3532 35.4944 103.87 34.3875 110.376 33.3261C117.842 32.1079 125.353 31.0262 132.698 29.2723C139.396 27.67 146.17 26.0273 152.267 22.5549C153.02 22.1252 153.762 21.6804 154.485 21.2053C158.415 18.6073 157.43 15.4078 154.56 13.017C150.858 9.93372 146.291 8.67515 141.699 7.57326C132.971 5.47564 124.095 4.39397 115.154 3.73182C99.9547 2.60972 84.7601 2.46314 69.5352 3.24154C56.2298 3.91884 43.0608 5.57673 30.0029 8.11915C23.2087 9.44344 16.4752 11.1266 10.2468 14.2452C8.18083 15.2814 6.25119 16.727 4.52866 18.2838C2.39697 20.2146 2.54851 22.6863 4.52361 24.8193C7.82218 28.3827 12.1866 30.2074 16.4853 32.0877C24.4868 35.5854 32.8569 37.9762 41.3837 39.7554C46.2684 40.7714 51.2339 41.388 56.154 42.217C57.3512 42.4191 58.5281 42.7376 59.8061 43.0257C53.9263 45.2446 48.1576 43.703 42.4445 42.7831C34.3925 41.484 26.5073 39.442 18.9353 36.3436C13.2019 33.9983 7.57466 31.4205 2.89201 27.2505C-1.629 23.2221 -0.441917 18.0159 3.64467 14.7962C9.60027 10.1005 16.7834 8.07366 24.0725 6.4916C28.0025 5.63738 31.9376 4.79833 35.8979 4.10586C39.8481 3.41845 43.8235 2.88772 47.799 2.38227C48.7688 2.2559 49.7842 2.48841 50.3348 2.52379C51.5522 2.26601 52.4008 2.08911 53.2444 1.90209C54.5274 1.62409 55.9721 1.64936 57.134 1.6342C58.8514 1.60893 60.5942 0.309917 62.4834 1.49267C63.1956 1.93747 64.5898 1.22478 65.6809 1.1338C68.4693 0.896238 71.2627 0.694054 74.0562 0.507037C77.0516 0.309911 80.0522 0.0521299 83.0527 0.00158466C84.8561 -0.0287425 86.6594 0.385731 88.4678 0.431222C89.8266 0.466604 91.1905 0.1229 92.5493 0.143118C94.7669 0.173446 96.9794 0.421112 99.197 0.461548C100.611 0.486821 102.137 -0.0843379 103.425 0.274533C106.804 1.20962 110.209 0.683952 113.588 0.901297C117.715 1.16413 121.847 1.52806 125.949 2.06889C135.138 3.27692 144.377 4.39397 152.868 8.48813C154.51 9.28169 156.101 10.3785 157.389 11.6624C161.511 15.7818 160.627 21.2811 155.621 24.2684C148.893 28.2816 141.528 30.541 133.941 32.0523C124.206 33.9932 114.402 35.5905 104.647 37.4404C95.5145 39.1741 86.3058 40.0081 77.0264 39.9475C72.7428 39.9172 68.4642 39.4218 64.1807 39.1034C63.721 39.068 63.2815 38.8102 62.8319 38.6535C62.8168 38.5019 62.8016 38.3502 62.7865 38.1986H62.7814Z" fill="#A9FFA9"/>
</svg>
