<svg width="199" height="164" viewBox="0 0 199 164" fill="none" xmlns="http://www.w3.org/2000/svg">
<path d="M30.7299 132.944C41.9428 123.068 53.499 113.534 64.2971 103.228C79.8436 88.3775 95.433 73.498 109.907 57.6322C121.935 44.4537 132.104 29.66 134.178 11.0213C134.492 8.19122 133.405 4.9895 134.407 2.54532C135.15 0.758637 138.54 -1.32822 140.242 -0.956594C142.373 -0.499204 145.333 2.15943 145.619 4.1891C147.15 14.9521 143.889 25.0718 138.997 34.4054C126.74 57.8037 108.834 76.7712 89.6978 94.5665C75.0953 108.145 60.0637 121.267 45.1751 134.545C41.4851 137.833 37.595 140.892 33.4616 144.322C40.9417 143.693 47.7924 143.093 54.6575 142.535C55.5156 142.464 56.6026 142.307 57.2462 142.721C59.2199 144.008 61.022 145.566 62.8956 147.009C61.2651 148.51 59.8778 150.783 57.9613 151.369C53.9853 152.569 49.6374 152.526 45.6185 153.641C33.8907 156.9 22.2916 160.688 10.5209 163.775C8.13247 164.404 4.5998 163.661 2.6261 162.189C-0.16283 160.116 -0.906576 156.514 1.25306 153.212C5.05744 147.381 9.2051 141.778 12.8093 135.832C14.6685 132.759 15.5696 129.114 17.0856 125.798C18.4443 122.81 19.374 118.608 21.7481 117.379C23.8648 116.278 28.6704 117.579 30.5869 119.509C33.6189 122.553 33.0898 126.913 30.3294 130.572C30.0434 130.943 30.072 131.544 29.9576 132.044C30.215 132.344 30.4724 132.63 30.7299 132.93V132.944Z" fill="white"/>
<path d="M130.441 103.932C141.336 96.4129 149.121 87.1532 156.461 77.6365C169.082 61.2714 178.753 43.2226 183.589 23.1192C185.575 14.8582 185.302 6.0549 186.064 -2.49151C186.381 -6.02993 187.115 -9.0975 191.806 -8.99763C196.167 -8.91202 199.635 -5.74457 198.902 -1.15034C197.362 8.4519 196.182 18.2682 193.131 27.4281C188.626 40.9255 183.891 54.6511 176.868 66.9357C170.032 78.8921 160.548 89.4645 151.553 100.065C146.847 105.601 140.774 110.01 135.118 114.719C131.88 117.415 131.549 120.012 133.161 123.893C134.787 127.816 135.723 132.182 135.968 136.42C136.054 137.946 133.176 141.028 131.693 141C124.9 140.9 118.122 139.901 111.344 139.331C108.206 139.059 104.997 138.617 101.917 139.017C97.6573 139.559 93.3687 139.159 92.2605 134.95C91.469 131.968 92.5771 127.759 94.2897 124.977C98.9669 117.429 104.479 110.395 109.559 103.09C110.624 101.549 111.358 99.7516 112.063 97.9824C113.546 94.2443 115.287 90.8199 120.151 91.1195C123.879 91.3478 129.981 96.9836 130.456 100.508C130.571 101.35 130.47 102.22 130.47 103.961L130.441 103.932Z" fill="white"/>
</svg>
