<svg width="187" height="174" viewBox="0 0 187 174" fill="none" xmlns="http://www.w3.org/2000/svg">
<path d="M51.6889 1.4183C51.5044 2.21091 51.0737 5.44228 50.7045 8.61269C49.9662 14.8925 49.0433 18.9775 46.5823 26.8426C45.2287 30.9275 44.3673 32.5737 41.9678 35.1954C33.7233 44.0969 16.9266 51.901 5.97496 51.901C2.89865 51.901 1.8527 52.1449 0.868281 53.1204C-0.116138 54.0959 -0.239191 54.5837 0.376071 55.803C0.929808 57.0224 1.6066 57.3883 3.88307 57.6931C16.2498 59.0954 22.587 60.8025 30.4009 64.7046C36.0613 67.5092 37.0457 68.5457 40.122 74.7645C45.2287 84.9464 48.8587 98.2378 48.8587 106.895C48.8587 112.444 49.8432 114.273 52.7349 113.968C54.7037 113.785 54.7037 113.724 55.0729 109.822C55.4421 105.127 57.3494 101.286 63.3174 93.0554C71.9926 81.0444 76.6686 77.0204 89.4045 70.5577C99.2487 65.5582 105.278 63.3633 112.108 62.2658C114.876 61.839 116.784 61.2293 116.968 60.6806C117.337 59.6441 114.384 55.0104 113.277 54.8885C112.908 54.8275 112.108 54.8275 111.554 54.8885C108.97 55.1324 98.4489 52.4497 92.85 50.0719C82.8212 45.865 79.868 44.0969 74.9459 39.1584C71.1928 35.3783 69.7777 33.3663 67.1936 28.1229C65.4708 24.5867 63.7481 21.2943 63.3174 20.8066C62.8867 20.3188 61.164 15.929 59.4413 11.0515C57.7185 6.17392 56.1804 1.72315 55.9343 1.11346C55.2575 -0.532722 52.0581 -0.288841 51.6889 1.4183ZM58.7029 20.8066C63.4405 30.8056 65.84 34.6467 71.5619 41.4752C77.4069 48.4257 91.7425 56.9615 99.3718 57.9979C102.879 58.4857 104.171 58.9125 103.556 59.4002C103.433 59.5222 101.402 60.2538 99.0642 60.9854C81.16 66.6556 65.5939 79.5811 55.8727 96.7745C54.6422 98.9084 53.4732 100.677 53.2271 100.677C52.981 100.677 52.4273 98.6036 51.9966 96.0429C51.5659 93.5431 50.7045 89.9459 50.0277 88.0559C47.4436 80.6176 41.7217 68.1189 39.8759 65.9849C37.3533 63.1194 33.2311 60.8635 23.633 57.3273L15.9422 54.4617L19.6338 53.4252C21.6641 52.8155 24.7405 51.7181 26.4017 50.9865C29.9702 49.4013 41.168 42.0849 45.1056 38.7316C47.9359 36.2928 50.3354 31.903 51.0122 27.7571C51.2583 26.4158 52.1196 22.3918 52.981 18.6727L54.5807 11.966L55.6882 14.4048C56.3649 15.7461 57.7185 18.6117 58.7029 20.8066Z" fill="white"/>
<path d="M146.276 96.6771C145.91 97.5268 145.666 99.5904 145.666 101.229C145.666 105.417 141.702 113.671 138.53 116.22C132.98 120.529 122.855 123.625 112.487 124.171L105.838 124.535L105.229 126.295C104.375 128.905 105.655 129.512 113.523 129.997C119.623 130.361 130.296 132.425 133.834 133.882C135.42 134.549 141.641 143.41 142.495 146.202C143.593 149.662 144.446 158.159 144.446 165.563C144.446 172.057 144.568 172.785 145.605 173.392C148.228 174.728 151.156 173.757 151.156 171.511C151.156 169.751 159.389 153.789 162.012 150.572C163.354 148.812 165.733 145.535 167.196 143.228C170.551 138.009 172.625 136.309 180.127 132.425C187.08 128.905 187.568 128.419 186.653 126.356C185.921 124.838 185.555 124.656 179.822 123.685C175.369 122.896 159.085 115.492 156.645 113.125C154.205 110.758 152.741 107.845 151.461 102.928C149.448 95.2812 147.618 93.0963 146.276 96.6771ZM150.119 111.79C150.729 113.246 152.253 115.37 153.473 116.463C155.547 118.223 164.879 122.896 173.845 126.72C175.796 127.509 177.382 128.298 177.382 128.48C177.382 128.662 175.979 129.572 174.333 130.544C168.538 134.003 157.804 146.748 152.558 156.52C150.607 160.101 148.96 162.893 148.899 162.65C148.838 162.346 148.472 158.766 148.167 154.578C147.435 146.202 146.398 143.471 141.214 136.067C137.859 131.393 135.664 129.997 129.93 128.783C127.369 128.237 124.441 127.57 123.404 127.327L121.574 126.841L123.404 126.416C128.345 125.203 131.821 123.928 137.127 121.258C143.105 118.284 144.629 116.766 147.313 111.365C147.923 110.09 148.533 109.058 148.716 109.058C148.899 109.058 149.509 110.272 150.119 111.79Z" fill="white"/>
</svg>
