<svg width="24" height="24" viewBox="0 0 24 24" fill="none" xmlns="http://www.w3.org/2000/svg">
<path d="M12.8929 17.1429H8.64286V13.7143H12.8929C13.3759 13.7143 13.8392 13.8949 14.1808 14.2164C14.5224 14.5379 14.7143 14.9739 14.7143 15.4286C14.7143 15.8832 14.5224 16.3193 14.1808 16.6408C13.8392 16.9622 13.3759 17.1429 12.8929 17.1429ZM8.64286 6.85714H12.2857C12.7688 6.85714 13.2321 7.03775 13.5737 7.35925C13.9152 7.68074 14.1071 8.11677 14.1071 8.57143C14.1071 9.02609 13.9152 9.46212 13.5737 9.78361C13.2321 10.1051 12.7688 10.2857 12.2857 10.2857H8.64286M15.4429 11.76C16.6207 10.9829 17.4464 9.71429 17.4464 8.57143C17.4464 5.98857 15.3214 4 12.5893 4H5V20H13.5486C16.0986 20 18.0536 18.0571 18.0536 15.6686C18.0536 13.9314 17.0093 12.4457 15.4429 11.76Z" fill="black"/>
</svg>
