<svg width="24" height="24" viewBox="0 0 24 24" fill="none" xmlns="http://www.w3.org/2000/svg">
<path d="M2.71875 20V4.44531H4.65234V11.3633H12.8809V4.44531H14.8359V20H12.8809V13.0605H4.65234V20H2.71875ZM17.3301 20L17.3184 19.2266L20.2129 16.1797C21.2207 15.1133 21.7012 14.5391 21.7012 13.7539C21.7012 12.8867 20.9629 12.3125 20.0137 12.3125C19.0059 12.3125 18.3613 12.957 18.3613 13.9062H17.3652C17.3535 12.4062 18.5137 11.3984 20.0488 11.3984C21.584 11.3984 22.6855 12.4297 22.6855 13.7539C22.6855 14.7031 22.2402 15.4414 20.7402 16.9883L18.7949 18.9922V19.0625H22.8379V20H17.3301Z" fill="black"/>
</svg>
