<svg width="24" height="24" viewBox="0 0 24 24" fill="none" xmlns="http://www.w3.org/2000/svg">
<path d="M2.71875 20V4.44531H4.65234V11.3633H12.8809V4.44531H14.8359V20H12.8809V13.0605H4.65234V20H2.71875ZM20.2598 20.1172C18.5723 20.1172 17.3652 19.2148 17.3066 17.8672H18.373C18.4316 18.6758 19.2402 19.1797 20.248 19.1797C21.3613 19.1797 22.1816 18.5703 22.1816 17.6914C22.1816 16.7656 21.4434 16.1094 20.1191 16.1094H19.4277V15.1836H20.1191C21.1504 15.1836 21.8652 14.6094 21.8652 13.7305C21.8652 12.8867 21.2441 12.3125 20.2832 12.3125C19.3809 12.3125 18.5488 12.8164 18.502 13.6484H17.4824C17.541 12.3008 18.7832 11.3984 20.2949 11.3984C21.9121 11.3984 22.8965 12.4531 22.8848 13.6719C22.8965 14.6328 22.334 15.3477 21.4434 15.5938V15.6523C22.5449 15.8281 23.2246 16.6133 23.2129 17.6914C23.2246 19.0859 21.9473 20.1172 20.2598 20.1172Z" fill="black"/>
</svg>
