<svg width="24" height="24" viewBox="0 0 24 24" fill="none" xmlns="http://www.w3.org/2000/svg">
<path d="M5 20H19V18.2222H5V20ZM12 16.4444C13.5913 16.4444 15.1174 15.8825 16.2426 14.8823C17.3679 13.8822 18 12.5256 18 11.1111V4H15.5V11.1111C15.5 11.9362 15.1313 12.7276 14.4749 13.311C13.8185 13.8944 12.9283 14.2222 12 14.2222C11.0717 14.2222 10.1815 13.8944 9.52513 13.311C8.86875 12.7276 8.5 11.9362 8.5 11.1111V4H6V11.1111C6 12.5256 6.63214 13.8822 7.75736 14.8823C8.88258 15.8825 10.4087 16.4444 12 16.4444Z" fill="black"/>
</svg>
